<?xml version="1.0" encoding="UTF-8" standalone="no"?>
<svg width="86px" height="66px" viewBox="0 0 86 66" version="1.1" xmlns="http://www.w3.org/2000/svg" xmlns:xlink="http://www.w3.org/1999/xlink" xmlns:sketch="http://www.bohemiancoding.com/sketch/ns">
    <!-- Generator: Sketch 3.1.1 (8761) - http://www.bohemiancoding.com/sketch -->
    <title>Stroke 1</title>
    <desc>Created with Sketch.</desc>
    <defs></defs>
    <g id="Page-1" stroke="none" stroke-width="1" fill="none" fill-rule="evenodd" sketch:type="MSPage">
        <g id="Landing" sketch:type="MSArtboardGroup" transform="translate(-469.000000, -79.000000)" stroke="#FFD24C" stroke-width="2" stroke-linecap="round">
            <path d="M487.032648,103.036233 C482.350116,103.212829 477.369264,105.299878 473.896258,109.618464 C467.650319,117.387017 469.86935,126.842108 473.896258,132.911449 C477.924022,138.98079 486.716376,143.846909 495.175363,143.991397 C503.077882,144.12659 509.129784,142.656361 513.99695,140.433274 M530.013976,128.190663 C528.371928,127.056728 526.80852,125.337236 525.546852,122.842072 C525.096378,121.951486 524.781816,120.945139 524.596327,119.875421 M532.072307,126.323304 C533.954551,124.709432 535.807733,123.448753 537.857515,122.842072 C544.695823,120.817551 545.668573,126.29035 539.143117,129.360931 C536.99247,130.373192 533.339958,130.488107 530.013976,128.190663 M528.055656,130.074077 C524.404854,133.60347 520.155701,137.621251 513.99695,140.433274 M524.708304,114.452474 C525.690456,109.544107 529.013874,104.825856 534.619577,103.944564 C549.554441,101.595578 556.883397,117.252668 552.948806,128.308957 C549.339889,138.450155 538.822572,143.774242 528.299271,143.991397 C524.132177,144.077583 520.42325,143.259662 517.077608,141.890829 M511.163326,138.726457 C506.374801,135.562086 502.412857,131.496988 498.891128,128.04364 C495.786536,124.999253 493.019586,122.432267 490.323583,121.390433 C484.006696,118.951036 480.203742,124.744075 487.658353,128.308957 C491.098022,129.953248 494.033365,130.074922 496.367793,129.327133 M500.784485,126.143327 C501.542682,125.121772 502.069232,123.980232 502.331652,122.842072 C503.828386,116.335888 501.890581,110.396671 496.583199,105.955566 C495.433509,104.993158 494.047897,104.260578 492.522954,103.766277 M505.376408,116.411089 C508.423729,115.864401 511.448826,114.43642 513.785817,112.17024 M537.37285,101.056494 C537.311306,100.029869 537.171975,99.0505611 536.967681,98.1599743 C535.515395,91.8236266 529.167736,80.164882 512.247198,80.00096 C495.480522,79.8387278 482.122743,100.275752 494.47871,113.523019 C495.885692,115.031271 497.795289,115.979315 499.922858,116.40264 M512.241214,109.912509 C510.721401,107.367493 509.789681,104.668694 509.563162,102.700784 C508.110877,90.0889257 519.051314,86.7479578 518.087968,102.700784 C517.847772,106.680541 516.173241,109.855052 513.785817,112.17024 M536.915539,106.401705 C535.713706,111.415691 532.116756,116.204919 524.223639,117.234079 C520.835258,117.675993 517.923848,116.29195 515.602243,114.140684" id="Stroke-1" sketch:type="MSShapeGroup"></path>
        </g>
    </g>
</svg>